<mxfile host="app.diagrams.net" modified="2023-05-17T06:37:26.834Z" agent="Mozilla/5.0 (Windows NT 10.0; Win64; x64) AppleWebKit/537.36 (KHTML, like Gecko) Chrome/113.0.0.0 Safari/537.36" etag="HENbWCWeyid-Ji9dHrwq" version="21.3.2" type="device">
  <diagram name="Page-1" id="2YBvvXClWsGukQMizWep">
    <mxGraphModel dx="1167" dy="1310" grid="1" gridSize="10" guides="1" tooltips="1" connect="1" arrows="1" fold="1" page="1" pageScale="1" pageWidth="850" pageHeight="1100" math="0" shadow="0">
      <root>
        <mxCell id="0" />
        <mxCell id="1" parent="0" />
        <mxCell id="j0nhdEGumB4P73b7gIvK-17" value="Actor" style="shape=umlActor;verticalLabelPosition=bottom;verticalAlign=top;html=1;outlineConnect=0;" vertex="1" parent="1">
          <mxGeometry x="30" y="60" width="30" height="60" as="geometry" />
        </mxCell>
        <mxCell id="j0nhdEGumB4P73b7gIvK-18" value="" style="endArrow=none;dashed=1;html=1;dashPattern=1 3;strokeWidth=2;rounded=0;entryX=0.5;entryY=0.5;entryDx=0;entryDy=0;entryPerimeter=0;" edge="1" parent="1" target="j0nhdEGumB4P73b7gIvK-17">
          <mxGeometry width="50" height="50" relative="1" as="geometry">
            <mxPoint x="45" y="720" as="sourcePoint" />
            <mxPoint x="480" y="380" as="targetPoint" />
          </mxGeometry>
        </mxCell>
        <mxCell id="j0nhdEGumB4P73b7gIvK-19" value="WebBrowser" style="rounded=0;whiteSpace=wrap;html=1;" vertex="1" parent="1">
          <mxGeometry x="160" y="40" width="120" height="60" as="geometry" />
        </mxCell>
        <mxCell id="j0nhdEGumB4P73b7gIvK-20" value="" style="endArrow=none;dashed=1;html=1;dashPattern=1 3;strokeWidth=2;rounded=0;entryX=0.5;entryY=1;entryDx=0;entryDy=0;" edge="1" parent="1" target="j0nhdEGumB4P73b7gIvK-19">
          <mxGeometry width="50" height="50" relative="1" as="geometry">
            <mxPoint x="220" y="720" as="sourcePoint" />
            <mxPoint x="55" y="100" as="targetPoint" />
          </mxGeometry>
        </mxCell>
        <mxCell id="j0nhdEGumB4P73b7gIvK-24" value="MemberController" style="rounded=0;whiteSpace=wrap;html=1;" vertex="1" parent="1">
          <mxGeometry x="360" y="40" width="120" height="60" as="geometry" />
        </mxCell>
        <mxCell id="j0nhdEGumB4P73b7gIvK-25" value="" style="endArrow=none;dashed=1;html=1;dashPattern=1 3;strokeWidth=2;rounded=0;entryX=0.5;entryY=1;entryDx=0;entryDy=0;" edge="1" parent="1" target="j0nhdEGumB4P73b7gIvK-24">
          <mxGeometry width="50" height="50" relative="1" as="geometry">
            <mxPoint x="420" y="720" as="sourcePoint" />
            <mxPoint x="255" y="100" as="targetPoint" />
          </mxGeometry>
        </mxCell>
        <mxCell id="j0nhdEGumB4P73b7gIvK-27" value="MemberService" style="rounded=0;whiteSpace=wrap;html=1;" vertex="1" parent="1">
          <mxGeometry x="560" y="40" width="120" height="60" as="geometry" />
        </mxCell>
        <mxCell id="j0nhdEGumB4P73b7gIvK-28" value="" style="endArrow=none;dashed=1;html=1;dashPattern=1 3;strokeWidth=2;rounded=0;entryX=0.5;entryY=1;entryDx=0;entryDy=0;" edge="1" parent="1" target="j0nhdEGumB4P73b7gIvK-27">
          <mxGeometry width="50" height="50" relative="1" as="geometry">
            <mxPoint x="620" y="720" as="sourcePoint" />
            <mxPoint x="455" y="100" as="targetPoint" />
          </mxGeometry>
        </mxCell>
        <mxCell id="j0nhdEGumB4P73b7gIvK-30" value="MemberRepository" style="rounded=0;whiteSpace=wrap;html=1;" vertex="1" parent="1">
          <mxGeometry x="760" y="40" width="120" height="60" as="geometry" />
        </mxCell>
        <mxCell id="j0nhdEGumB4P73b7gIvK-31" value="" style="endArrow=none;dashed=1;html=1;dashPattern=1 3;strokeWidth=2;rounded=0;entryX=0.5;entryY=1;entryDx=0;entryDy=0;" edge="1" parent="1" target="j0nhdEGumB4P73b7gIvK-30">
          <mxGeometry width="50" height="50" relative="1" as="geometry">
            <mxPoint x="820" y="720" as="sourcePoint" />
            <mxPoint x="655" y="100" as="targetPoint" />
          </mxGeometry>
        </mxCell>
        <mxCell id="j0nhdEGumB4P73b7gIvK-33" value="Secure DB" style="shape=cylinder3;whiteSpace=wrap;html=1;boundedLbl=1;backgroundOutline=1;size=15;fillColor=#FFF2CC;" vertex="1" parent="1">
          <mxGeometry x="960" y="200" width="110" height="100" as="geometry" />
        </mxCell>
        <mxCell id="j0nhdEGumB4P73b7gIvK-34" value="" style="rounded=0;whiteSpace=wrap;html=1;fillColor=#FFF2CC;" vertex="1" parent="1">
          <mxGeometry x="410" y="221" width="20" height="220" as="geometry" />
        </mxCell>
        <mxCell id="j0nhdEGumB4P73b7gIvK-35" value="" style="rounded=0;whiteSpace=wrap;html=1;fillColor=#FFF2CC;" vertex="1" parent="1">
          <mxGeometry x="610" y="221" width="20" height="220" as="geometry" />
        </mxCell>
        <mxCell id="j0nhdEGumB4P73b7gIvK-36" value="" style="rounded=0;whiteSpace=wrap;html=1;fillColor=#FFF2CC;" vertex="1" parent="1">
          <mxGeometry x="810" y="221" width="20" height="220" as="geometry" />
        </mxCell>
        <mxCell id="j0nhdEGumB4P73b7gIvK-37" value="" style="endArrow=classic;html=1;rounded=0;exitX=1;exitY=0;exitDx=0;exitDy=0;entryX=0;entryY=0;entryDx=0;entryDy=0;" edge="1" parent="1" source="j0nhdEGumB4P73b7gIvK-43" target="j0nhdEGumB4P73b7gIvK-44">
          <mxGeometry width="50" height="50" relative="1" as="geometry">
            <mxPoint x="210" y="281" as="sourcePoint" />
            <mxPoint x="207" y="241" as="targetPoint" />
          </mxGeometry>
        </mxCell>
        <mxCell id="j0nhdEGumB4P73b7gIvK-38" value="id, password&amp;nbsp;입력" style="text;html=1;align=center;verticalAlign=middle;resizable=0;points=[];autosize=1;strokeColor=none;fillColor=none;" vertex="1" parent="1">
          <mxGeometry x="70" y="194" width="120" height="30" as="geometry" />
        </mxCell>
        <mxCell id="j0nhdEGumB4P73b7gIvK-39" value="" style="endArrow=classic;html=1;rounded=0;entryX=0.052;entryY=0.092;entryDx=0;entryDy=0;entryPerimeter=0;exitX=1.148;exitY=0.092;exitDx=0;exitDy=0;exitPerimeter=0;" edge="1" parent="1" source="j0nhdEGumB4P73b7gIvK-44" target="j0nhdEGumB4P73b7gIvK-34">
          <mxGeometry width="50" height="50" relative="1" as="geometry">
            <mxPoint x="230" y="256" as="sourcePoint" />
            <mxPoint x="410" y="247" as="targetPoint" />
          </mxGeometry>
        </mxCell>
        <mxCell id="j0nhdEGumB4P73b7gIvK-40" value="로그인 요청" style="text;html=1;align=center;verticalAlign=middle;resizable=0;points=[];autosize=1;strokeColor=none;fillColor=none;" vertex="1" parent="1">
          <mxGeometry x="280" y="219" width="90" height="30" as="geometry" />
        </mxCell>
        <mxCell id="j0nhdEGumB4P73b7gIvK-41" value="" style="endArrow=classic;html=1;rounded=0;exitX=0.957;exitY=0.179;exitDx=0;exitDy=0;exitPerimeter=0;entryX=-0.067;entryY=0.179;entryDx=0;entryDy=0;entryPerimeter=0;" edge="1" parent="1" source="j0nhdEGumB4P73b7gIvK-34" target="j0nhdEGumB4P73b7gIvK-35">
          <mxGeometry width="50" height="50" relative="1" as="geometry">
            <mxPoint x="240" y="266" as="sourcePoint" />
            <mxPoint x="610" y="275" as="targetPoint" />
          </mxGeometry>
        </mxCell>
        <mxCell id="j0nhdEGumB4P73b7gIvK-42" value="로그인" style="text;html=1;align=center;verticalAlign=middle;resizable=0;points=[];autosize=1;strokeColor=none;fillColor=none;" vertex="1" parent="1">
          <mxGeometry x="490" y="239" width="60" height="30" as="geometry" />
        </mxCell>
        <mxCell id="j0nhdEGumB4P73b7gIvK-43" value="" style="rounded=0;whiteSpace=wrap;html=1;fillColor=#FFF2CC;" vertex="1" parent="1">
          <mxGeometry x="35" y="221" width="20" height="220" as="geometry" />
        </mxCell>
        <mxCell id="j0nhdEGumB4P73b7gIvK-44" value="" style="rounded=0;whiteSpace=wrap;html=1;fillColor=#FFF2CC;" vertex="1" parent="1">
          <mxGeometry x="210" y="221" width="20" height="220" as="geometry" />
        </mxCell>
        <mxCell id="j0nhdEGumB4P73b7gIvK-47" value="" style="endArrow=classic;html=1;rounded=0;exitX=0.957;exitY=0.179;exitDx=0;exitDy=0;exitPerimeter=0;entryX=-0.067;entryY=0.179;entryDx=0;entryDy=0;entryPerimeter=0;" edge="1" parent="1">
          <mxGeometry width="50" height="50" relative="1" as="geometry">
            <mxPoint x="630" y="322" as="sourcePoint" />
            <mxPoint x="810" y="322" as="targetPoint" />
          </mxGeometry>
        </mxCell>
        <mxCell id="j0nhdEGumB4P73b7gIvK-48" value="로그인" style="text;html=1;align=center;verticalAlign=middle;resizable=0;points=[];autosize=1;strokeColor=none;fillColor=none;" vertex="1" parent="1">
          <mxGeometry x="700" y="300" width="60" height="30" as="geometry" />
        </mxCell>
        <mxCell id="j0nhdEGumB4P73b7gIvK-50" value="" style="html=1;verticalAlign=bottom;endArrow=open;dashed=1;endSize=8;edgeStyle=elbowEdgeStyle;elbow=vertical;curved=0;rounded=0;entryX=1.05;entryY=0.723;entryDx=0;entryDy=0;entryPerimeter=0;" edge="1" parent="1" target="j0nhdEGumB4P73b7gIvK-35">
          <mxGeometry relative="1" as="geometry">
            <mxPoint x="810" y="380" as="sourcePoint" />
            <mxPoint x="650" y="380" as="targetPoint" />
            <Array as="points">
              <mxPoint x="690" y="380" />
            </Array>
          </mxGeometry>
        </mxCell>
        <mxCell id="j0nhdEGumB4P73b7gIvK-51" value="" style="html=1;verticalAlign=bottom;endArrow=open;dashed=1;endSize=8;edgeStyle=elbowEdgeStyle;elbow=vertical;curved=0;rounded=0;entryX=1;entryY=1;entryDx=0;entryDy=0;" edge="1" parent="1">
          <mxGeometry relative="1" as="geometry">
            <mxPoint x="610" y="414" as="sourcePoint" />
            <mxPoint x="430" y="414.52" as="targetPoint" />
          </mxGeometry>
        </mxCell>
        <mxCell id="j0nhdEGumB4P73b7gIvK-52" value="성공 여부 반환" style="text;html=1;align=center;verticalAlign=middle;resizable=0;points=[];autosize=1;strokeColor=none;fillColor=none;" vertex="1" parent="1">
          <mxGeometry x="470" y="391" width="100" height="30" as="geometry" />
        </mxCell>
        <mxCell id="j0nhdEGumB4P73b7gIvK-53" value="" style="html=1;verticalAlign=bottom;endArrow=open;dashed=1;endSize=8;edgeStyle=elbowEdgeStyle;elbow=vertical;curved=0;rounded=0;entryX=1;entryY=1;entryDx=0;entryDy=0;" edge="1" parent="1">
          <mxGeometry relative="1" as="geometry">
            <mxPoint x="410" y="424" as="sourcePoint" />
            <mxPoint x="230" y="424.52" as="targetPoint" />
          </mxGeometry>
        </mxCell>
        <mxCell id="j0nhdEGumB4P73b7gIvK-54" value="성공 여부 반환" style="text;html=1;align=center;verticalAlign=middle;resizable=0;points=[];autosize=1;strokeColor=none;fillColor=none;" vertex="1" parent="1">
          <mxGeometry x="270" y="401" width="100" height="30" as="geometry" />
        </mxCell>
        <mxCell id="j0nhdEGumB4P73b7gIvK-55" value="" style="html=1;verticalAlign=bottom;endArrow=open;dashed=1;endSize=8;edgeStyle=elbowEdgeStyle;elbow=vertical;curved=0;rounded=0;entryX=1;entryY=1;entryDx=0;entryDy=0;" edge="1" parent="1">
          <mxGeometry relative="1" as="geometry">
            <mxPoint x="210" y="442" as="sourcePoint" />
            <mxPoint x="55" y="441.52" as="targetPoint" />
          </mxGeometry>
        </mxCell>
        <mxCell id="j0nhdEGumB4P73b7gIvK-56" value="성공 시, 메인 페이지 이동" style="text;html=1;align=center;verticalAlign=middle;resizable=0;points=[];autosize=1;strokeColor=none;fillColor=none;" vertex="1" parent="1">
          <mxGeometry x="50" y="416" width="160" height="30" as="geometry" />
        </mxCell>
        <mxCell id="j0nhdEGumB4P73b7gIvK-58" value="salt 가져오기" style="text;html=1;align=center;verticalAlign=middle;resizable=0;points=[];autosize=1;strokeColor=none;fillColor=none;" vertex="1" parent="1">
          <mxGeometry x="664" y="239" width="90" height="30" as="geometry" />
        </mxCell>
        <mxCell id="j0nhdEGumB4P73b7gIvK-59" value="" style="rounded=0;whiteSpace=wrap;html=1;fillColor=#FFF2CC;" vertex="1" parent="1">
          <mxGeometry x="620" y="261" width="20" height="30" as="geometry" />
        </mxCell>
        <mxCell id="j0nhdEGumB4P73b7gIvK-60" value="Main DB" style="shape=cylinder3;whiteSpace=wrap;html=1;boundedLbl=1;backgroundOutline=1;size=15;fillColor=#FFF2CC;" vertex="1" parent="1">
          <mxGeometry x="960" y="316" width="110" height="100" as="geometry" />
        </mxCell>
        <mxCell id="j0nhdEGumB4P73b7gIvK-61" value="" style="endArrow=classic;html=1;rounded=0;exitX=0.75;exitY=0;exitDx=0;exitDy=0;" edge="1" parent="1" source="j0nhdEGumB4P73b7gIvK-59">
          <mxGeometry width="50" height="50" relative="1" as="geometry">
            <mxPoint x="660" y="261" as="sourcePoint" />
            <mxPoint x="810" y="261" as="targetPoint" />
          </mxGeometry>
        </mxCell>
        <mxCell id="j0nhdEGumB4P73b7gIvK-62" value="" style="endArrow=classic;html=1;rounded=0;exitX=0.75;exitY=0;exitDx=0;exitDy=0;" edge="1" parent="1">
          <mxGeometry width="50" height="50" relative="1" as="geometry">
            <mxPoint x="830" y="271" as="sourcePoint" />
            <mxPoint x="960" y="271" as="targetPoint" />
          </mxGeometry>
        </mxCell>
        <mxCell id="j0nhdEGumB4P73b7gIvK-63" value="salt 가져오기" style="text;html=1;align=center;verticalAlign=middle;resizable=0;points=[];autosize=1;strokeColor=none;fillColor=none;" vertex="1" parent="1">
          <mxGeometry x="843" y="249" width="90" height="30" as="geometry" />
        </mxCell>
        <mxCell id="j0nhdEGumB4P73b7gIvK-64" value="" style="html=1;verticalAlign=bottom;endArrow=open;dashed=1;endSize=8;edgeStyle=elbowEdgeStyle;elbow=vertical;curved=0;rounded=0;" edge="1" parent="1">
          <mxGeometry relative="1" as="geometry">
            <mxPoint x="960" y="279.48" as="sourcePoint" />
            <mxPoint x="830" y="279" as="targetPoint" />
            <Array as="points" />
          </mxGeometry>
        </mxCell>
        <mxCell id="j0nhdEGumB4P73b7gIvK-65" value="" style="html=1;verticalAlign=bottom;endArrow=open;dashed=1;endSize=8;edgeStyle=elbowEdgeStyle;elbow=vertical;curved=0;rounded=0;" edge="1" parent="1">
          <mxGeometry relative="1" as="geometry">
            <mxPoint x="810" y="290.48" as="sourcePoint" />
            <mxPoint x="640" y="290" as="targetPoint" />
          </mxGeometry>
        </mxCell>
        <mxCell id="j0nhdEGumB4P73b7gIvK-66" value="입력 password 암호화" style="text;html=1;align=center;verticalAlign=middle;resizable=0;points=[];autosize=1;strokeColor=none;fillColor=none;" vertex="1" parent="1">
          <mxGeometry x="650" y="265" width="140" height="30" as="geometry" />
        </mxCell>
        <mxCell id="j0nhdEGumB4P73b7gIvK-68" value="" style="endArrow=classic;html=1;rounded=0;exitX=0.936;exitY=0.585;exitDx=0;exitDy=0;exitPerimeter=0;" edge="1" parent="1" source="j0nhdEGumB4P73b7gIvK-36">
          <mxGeometry width="50" height="50" relative="1" as="geometry">
            <mxPoint x="830" y="340" as="sourcePoint" />
            <mxPoint x="960" y="350" as="targetPoint" />
          </mxGeometry>
        </mxCell>
        <mxCell id="j0nhdEGumB4P73b7gIvK-69" value="id, password 비교" style="text;html=1;align=center;verticalAlign=middle;resizable=0;points=[];autosize=1;strokeColor=none;fillColor=none;" vertex="1" parent="1">
          <mxGeometry x="840" y="316" width="120" height="30" as="geometry" />
        </mxCell>
        <mxCell id="j0nhdEGumB4P73b7gIvK-75" value="" style="html=1;verticalAlign=bottom;endArrow=open;dashed=1;endSize=8;edgeStyle=elbowEdgeStyle;elbow=vertical;curved=0;rounded=0;" edge="1" parent="1">
          <mxGeometry relative="1" as="geometry">
            <mxPoint x="960" y="366.14" as="sourcePoint" />
            <mxPoint x="830" y="365.65999999999997" as="targetPoint" />
            <Array as="points" />
          </mxGeometry>
        </mxCell>
        <mxCell id="j0nhdEGumB4P73b7gIvK-76" value="성공 여부 반환" style="text;html=1;align=center;verticalAlign=middle;resizable=0;points=[];autosize=1;strokeColor=none;fillColor=none;" vertex="1" parent="1">
          <mxGeometry x="670" y="360" width="100" height="30" as="geometry" />
        </mxCell>
      </root>
    </mxGraphModel>
  </diagram>
</mxfile>
